<?xml version="1.0" encoding="UTF-8" standalone="no"?>
<svg width="39px" height="59px" viewBox="0 0 39 59" version="1.1" xmlns="http://www.w3.org/2000/svg" xmlns:xlink="http://www.w3.org/1999/xlink">
    <!-- Generator: Sketch 48.2 (47327) - http://www.bohemiancoding.com/sketch -->
    <title>medal</title>
    <desc>Created with Sketch.</desc>
    <defs></defs>
    <g id="V4.0" stroke="none" stroke-width="1" fill="none" fill-rule="evenodd" transform="translate(-516.000000, -12303.000000)">
        <g id="Group-53" transform="translate(263.000000, 11617.000000)" fill="#FFFFFF" fill-rule="nonzero">
            <g id="person" transform="translate(0.000000, 551.000000)">
                <path d="M272,152.666331 L270.632487,153.424356 C269.77619,153.899009 268.697243,153.589625 268.22259,152.733329 C267.747937,151.877032 268.05732,150.798084 268.913617,150.323431 L272.703635,148.22259 C273.008823,148.053421 273.342293,147.983844 273.666608,148.003124 C273.701716,148.001051 273.737099,148 273.772727,148 C274.751778,148 275.545455,148.793677 275.545455,149.772727 L275.545455,161.590909 C275.545455,162.569959 274.751778,163.363636 273.772727,163.363636 C272.793677,163.363636 272,162.569959 272,161.590909 L272,152.666331 Z M289.226143,159.422186 L289.226143,164.71943 L284.724137,167.36937 L282.127571,171.95768 L281.467449,171.95768 C281.467449,171.958998 281.468741,171.961633 281.468741,171.962951 L281.468741,191.728789 C281.468741,191.73406 281.466157,191.738013 281.466157,191.743284 C281.471325,192.077986 281.351185,192.415323 281.100571,192.670961 C280.849957,192.926599 280.51925,193.049147 280.189835,193.043876 C280.18596,193.043876 280.182084,193.046512 280.176917,193.046512 C279.763533,193.046512 279.410865,192.835676 279.175753,192.526011 L272.425974,185.640911 L265.676194,192.526011 C265.441082,192.835676 265.089706,193.046512 264.67503,193.046512 C264.669863,193.046512 264.665987,193.043876 264.662112,193.043876 C264.332697,193.049147 264.00199,192.926599 263.751376,192.670961 C263.502054,192.415323 263.380623,192.077986 263.38579,191.743284 C263.38579,191.738013 263.383206,191.73406 263.383206,191.728789 L263.383206,171.962951 C263.383206,171.961633 263.384498,171.958998 263.384498,171.95768 L262.729543,171.95768 L260.130394,167.36937 L255.629679,164.71943 L255.629679,159.422186 L253.031821,154.833876 L255.629679,150.244248 L255.629679,144.943051 L260.130394,142.290475 L262.729543,137.706118 L267.929135,137.706118 L272.424682,135.054861 L276.925396,137.706118 L282.124987,137.706118 L284.721553,142.290475 L289.22356,144.943051 L289.22356,150.242931 L291.820126,154.833876 L289.226143,159.422186 Z M265.966854,171.962951 L265.966854,188.591292 L271.379596,183.070034 C271.420935,183.008101 271.448063,182.936944 271.502319,182.880282 C271.756809,182.622009 272.092683,182.502096 272.425974,182.510002 C272.759264,182.502096 273.095138,182.622009 273.349628,182.880282 C273.403884,182.936944 273.429721,183.008101 273.472351,183.070034 L278.885093,188.591292 L278.885093,171.962951 C278.885093,171.961633 278.886385,171.958998 278.886385,171.95768 L276.926688,171.95768 L272.425974,174.610256 L267.930426,171.95768 L265.965562,171.95768 C265.965562,171.958998 265.966854,171.961633 265.966854,171.962951 Z M286.636036,150.947912 L286.636036,146.463702 L282.82774,144.219621 L280.632931,140.341563 L276.232979,140.341563 L272.428557,138.100117 L268.626719,140.341563 L264.226767,140.341563 L262.029375,144.218303 L258.219786,146.462385 L258.219786,150.947912 L256.022394,154.833876 L258.219786,158.717204 L258.219786,163.197461 L262.029375,165.440225 L264.226767,169.320917 L268.625428,169.320917 L272.427265,171.562363 L276.231687,169.320917 L280.630347,169.320917 L282.825156,165.440225 L286.634745,163.197461 L286.634745,158.718522 L288.830845,154.833876 L286.636036,150.947912 Z" id="medal"></path>
            </g>
        </g>
    </g>
</svg>