<?xml version="1.0" encoding="UTF-8" standalone="no"?>
<svg width="22px" height="27px" viewBox="0 0 22 27" version="1.1" xmlns="http://www.w3.org/2000/svg" xmlns:xlink="http://www.w3.org/1999/xlink">
    <!-- Generator: Sketch 48.2 (47327) - http://www.bohemiancoding.com/sketch -->
    <title>pot copy 1</title>
    <desc>Created with Sketch.</desc>
    <defs></defs>
    <g id="V4.0" stroke="none" stroke-width="1" fill="none" fill-rule="evenodd" transform="translate(-706.000000, -12304.000000)">
        <g id="Group-53" transform="translate(263.000000, 11617.000000)" fill="#FFFFFF">
            <g id="plants" transform="translate(363.000000, 661.000000)">
                <g id="pots" transform="translate(80.000000, 26.000000)">
                    <path d="M19.4390088,16.0001953 C19.3590364,18.5011184 19.2127001,20.3343866 19,21.5 C18.7097868,23.0903912 18.143116,24.8237896 17.2999878,26.7001953 L4.70001221,26.7001953 C3.85688397,24.8237896 3.29021323,23.0903912 3,21.5 C2.78729986,20.3343866 2.64096361,18.5011184 2.56099124,16.0001953 L19.4390088,16.0001953 Z M2.29998779,15.2001953 L2.29998779,12.9003906 L8.56753719,12.9003906 C7.43145183,12.0527081 6.5756061,11.5859112 6,11.5 C5.40223124,11.4107809 4.06889791,11.5774476 2,12 C2.83044377,10.9460498 3.49711043,10.2793831 4,10 C4.50288957,9.72061691 5.3362229,9.55395024 6.5,9.5 C4.73726746,8.29834377 3.5706008,7.63167711 3,7.5 C2.4293992,7.36832289 1.4293992,7.53498956 0,8 C0.933349609,6.86653646 2.23335775,6.13313802 3.90002441,5.79980469 C5.56669108,5.46647135 7.03334554,6.19986979 8.29998779,8 C7.70001221,6.80013021 7.06669108,5.86686198 6.40002441,5.20019531 C5.73335775,4.53352865 4.66668701,3.96679688 3.20001221,3.5 C4.06667074,3.16666667 5.0333252,3.0999349 6.09997559,3.29980469 C7.16662598,3.49967448 8.33329264,4.16634115 9.59997559,5.29980469 C9.69388428,4.6675636 9.82722575,4.0676287 10,3.5 C10.1727742,2.9323713 10.5061076,1.99910307 11,0.700195312 C11.4938924,1.99910307 11.8272258,2.9323713 12,3.5 C12.1727742,4.0676287 12.3061157,4.6675636 12.4000244,5.29980469 C13.6667074,4.16634115 14.833374,3.49967448 15.9000244,3.29980469 C16.9666748,3.0999349 17.9333293,3.16666667 18.7999878,3.5 C17.333313,3.96679688 16.2666423,4.53352865 15.5999756,5.20019531 C14.9333089,5.86686198 14.2999878,6.80013021 13.7000122,8 C14.9666545,6.19986979 16.4333089,5.46647135 18.0999756,5.79980469 C19.7666423,6.13313802 21.0666504,6.86653646 22,8 C20.5706008,7.53498956 19.5706008,7.36832289 19,7.5 C18.4293992,7.63167711 17.2627325,8.29834377 15.5,9.5 C16.6637771,9.55395024 17.4971104,9.72061691 18,10 C18.5028896,10.2793831 19.1695562,10.9460498 20,12 C17.9311021,11.5774476 16.5977688,11.4107809 16,11.5 C15.4243939,11.5859112 14.5685482,12.0527081 13.4324628,12.9003906 L19.599987,12.9003906 L19.599987,15.2001953 L2.29998779,15.2001953 Z" id="pot-copy-1"></path>
                </g>
            </g>
        </g>
    </g>
</svg>