<?xml version="1.0" encoding="UTF-8" standalone="no"?>
<svg width="58px" height="41px" viewBox="0 0 58 41" version="1.1" xmlns="http://www.w3.org/2000/svg" xmlns:xlink="http://www.w3.org/1999/xlink">
    <!-- Generator: Sketch 48.2 (47327) - http://www.bohemiancoding.com/sketch -->
    <title>twitters</title>
    <desc>Created with Sketch.</desc>
    <defs></defs>
    <g id="V4.0" stroke="none" stroke-width="1" fill="none" fill-rule="evenodd" transform="translate(-927.000000, -11776.000000)">
        <g id="Group-53" transform="translate(263.000000, 11617.000000)" fill="#FFFFFF" fill-rule="nonzero">
            <g id="twitter" transform="translate(261.000000, 141.000000)">
                <path d="M442.328882,58.3832075 L442.329172,58.3828672 C439.29263,58.3828672 436.467387,57.4929993 434.088046,55.9679136 C434.50886,56.0176811 434.937026,56.0423336 435.37044,56.0423336 C437.889681,56.0423336 440.207646,55.1833298 442.047703,53.7410756 C439.694653,53.6976374 437.709931,52.1431825 437.025489,50.0070601 C437.353034,50.0699699 437.690023,50.1040135 438.035911,50.1040135 C438.526482,50.1040135 439.001787,50.0379768 439.453544,49.9148198 C436.99357,49.422227 435.140411,47.2483818 435.140411,44.6447271 C435.140411,44.6206197 435.140411,44.5986289 435.141203,44.5760727 C435.865407,44.9790896 436.693987,45.2212163 437.576029,45.2484681 C436.13272,44.2851774 435.183586,42.6385701 435.183586,40.773365 C435.183586,39.7886189 435.449816,38.865724 435.911528,38.0712268 C438.563193,41.3241685 442.525303,43.4634653 446.993548,43.6882976 C446.901307,43.2946806 446.854141,42.8843214 446.854141,42.4624431 C446.854141,39.4946636 449.261708,37.0870083 452.230631,37.0870083 C453.777172,37.0870083 455.173877,37.7406039 456.15493,38.7855831 C457.37973,38.5439471 458.530051,38.096384 459.568787,37.4805902 C459.166764,38.7357259 458.314619,39.7885925 457.204658,40.4541732 C458.292108,40.3242015 459.328734,40.0359617 460.292024,39.6077876 C459.572392,40.685829 458.660014,41.6328348 457.610286,42.3917022 C457.620724,42.622294 457.625463,42.8539322 457.625463,43.0866256 C457.625463,50.1907958 452.21767,58.3832075 442.328882,58.3832075 Z M409.613682,45.0912628 L409.613915,45.0909897 C407.176938,45.0909897 404.90954,44.3768263 403,43.1528689 C403.337724,43.1928098 403.681349,43.2125947 404.029186,43.2125947 C406.051002,43.2125947 407.911284,42.5232012 409.388022,41.3657203 C407.499582,41.3308589 405.906744,40.0833313 405.357445,38.3689864 C405.620316,38.4194746 405.890767,38.4467963 406.168359,38.4467963 C406.562066,38.4467963 406.943523,38.3937986 407.30608,38.294959 C405.331828,37.8996286 403.844576,36.1550094 403.844576,34.0654465 C403.844576,34.0460992 403.844576,34.0284504 403.845211,34.010348 C404.426421,34.3337892 405.091398,34.5281079 405.79928,34.5499788 C404.640953,33.7768899 403.879225,32.4554055 403.879225,30.9584852 C403.879225,30.1681774 404.092889,29.4275081 404.463435,28.7898844 C406.591529,31.4005326 409.77132,33.117425 413.357309,33.2978642 C413.283282,32.9819668 413.245428,32.6526331 413.245428,32.3140547 C413.245428,29.9322635 415.177621,28 417.56033,28 C418.801506,28 419.922432,28.5245431 420.709776,29.3631911 C421.692739,29.1692661 422.615929,28.8100744 423.449567,28.3158691 C423.126923,29.3231781 422.443034,30.1681562 421.552235,30.7023179 C422.424968,30.5980091 423.256912,30.3666823 424.030001,30.0230512 C423.45246,30.8882333 422.720231,31.6482527 421.877772,32.2572816 C421.886149,32.442343 421.889952,32.6282443 421.889952,32.8149924 C421.889952,38.5164435 417.549928,45.0912628 409.613682,45.0912628 Z M449.320874,21.395451 C449.320874,25.4160176 446.260363,30.0524687 440.664021,30.0522761 C438.945506,30.0522761 437.346575,29.5486603 436,28.6855462 C436.238158,28.7137119 436.480475,28.7276638 436.725764,28.7276638 C438.151515,28.7276638 439.463355,28.2415153 440.504725,27.4252793 C439.173029,27.4006957 438.049786,26.5209604 437.66243,25.3120334 C437.847803,25.3476369 438.03852,25.3669036 438.234273,25.3669036 C438.511909,25.3669036 438.780905,25.3295306 439.036575,25.2598305 C437.644366,24.9810503 436.595581,23.7507744 436.595581,22.27725 C436.595581,22.2636066 436.595581,22.251161 436.596028,22.2383955 C437.005888,22.4664807 437.474818,22.603511 437.974005,22.618934 C437.157172,22.0737648 436.620015,21.1418764 436.620015,20.0862736 C436.620015,19.5289619 436.770687,19.0066545 437.03199,18.5570131 C438.532685,20.3979979 440.77502,21.6087213 443.303799,21.735964 C443.251596,21.5131986 443.224902,21.280958 443.224902,21.0421983 C443.224902,19.3625995 444.587452,18 446.267698,18 C447.142954,18 447.933412,18.3698989 448.488634,18.9612992 C449.181802,18.8245466 449.832821,18.5712507 450.420688,18.2227455 C450.193165,18.9330828 449.710898,19.528947 449.082722,19.9056288 C449.698158,19.832072 450.284831,19.6689442 450.83,19.4266214 C450.422728,20.0367331 449.906372,20.5726859 449.312285,21.0021628 C449.318192,21.132665 449.320874,21.2637594 449.320874,21.395451 Z" id="twitters"></path>
            </g>
        </g>
    </g>
</svg>