<?xml version="1.0" encoding="UTF-8" standalone="no"?>
<svg width="65px" height="58px" viewBox="0 0 65 58" version="1.1" xmlns="http://www.w3.org/2000/svg" xmlns:xlink="http://www.w3.org/1999/xlink">
    <!-- Generator: Sketch 48.2 (47327) - http://www.bohemiancoding.com/sketch -->
    <title>books</title>
    <desc>Created with Sketch.</desc>
    <defs></defs>
    <g id="V4.0" stroke="none" stroke-width="1" fill="none" fill-rule="evenodd" transform="translate(-850.000000, -12038.000000)">
        <g id="Group-53" transform="translate(263.000000, 11617.000000)" fill="#FFFFFF">
            <g id="library" transform="translate(492.000000, 391.000000)">
                <path d="M126.984564,37.6022638 L133.414303,37.6022638 L133.414303,32.1704374 L142.223637,32.1704374 L142.223637,40.1091659 L147.923263,38.5819556 C148.45673,38.4390138 149.005067,38.7555963 149.148008,39.2890624 L157.449482,70.2705851 C157.50545,70.4794596 157.49097,70.6906139 157.420608,70.8788213 C158.742054,71.0271614 159.769231,72.1483182 159.769231,73.5093849 C159.769231,74.9714025 158.584031,76.1566018 157.122014,76.1566018 L152.616507,76.1566018 C152.622504,76.2255184 152.625566,76.2952758 152.625566,76.3657482 L152.625566,85.1787758 C152.625566,86.4938883 151.559456,87.5599976 150.244344,87.5599976 C148.929231,87.5599976 147.863122,86.4938883 147.863122,85.1787758 L147.863122,76.3657482 C147.863122,76.2952758 147.866184,76.2255184 147.872181,76.1566018 L106.89705,76.1566018 C106.903047,76.2255184 106.906109,76.2952758 106.906109,76.3657482 L106.906109,85.1787758 C106.906109,86.4938883 105.839999,87.5599976 104.524887,87.5599976 C103.209774,87.5599976 102.143665,86.4938883 102.143665,85.1787758 L102.143665,76.3657482 C102.143665,76.2952758 102.146727,76.2255184 102.152723,76.1566018 L97.6472169,76.1566018 C96.1851994,76.1566018 95,74.9714025 95,73.5093849 C95,72.0566697 96.1701654,70.8772613 97.6193439,70.8623118 L97.6193439,30 L120.079021,30 L120.079021,33.6741771 C120.122612,33.6683731 120.16709,33.6653772 120.212268,33.6653772 L125.984564,33.6653772 C126.536849,33.6653772 126.984564,34.1130925 126.984564,34.6653772 L126.984564,37.6022638 Z M142.223637,49.7882774 L142.223637,70.8621681 L147.870369,70.8621681 L142.223637,49.7882774 Z M142.223637,41.3357883 L142.223637,47.018808 L148.612446,70.8621681 L155.981847,70.8621681 L156.735802,70.6601464 L148.432581,39.6721067 L142.223637,41.3357883 Z M151.673077,74.9348094 L157.221073,74.9348094 C157.970825,74.9348094 158.57862,74.3270149 158.57862,73.5772623 C158.57862,72.8275097 157.970825,72.2197152 157.221073,72.2197152 L97.548158,72.2197152 C96.7984054,72.2197152 96.1906109,72.8275097 96.1906109,73.5772623 C96.1906109,74.3270149 96.7984054,74.9348094 97.548158,74.9348094 L103.096154,74.9348094 L103.096154,84.9094721 C103.096154,85.6985396 103.735819,86.3382052 104.524887,86.3382052 C105.313954,86.3382052 105.95362,85.6985396 105.95362,84.9094721 L105.95362,74.9348094 L148.815611,74.9348094 L148.815611,84.9094721 C148.815611,85.6985396 149.455276,86.3382052 150.244344,86.3382052 C151.033411,86.3382052 151.673077,85.6985396 151.673077,84.9094721 L151.673077,74.9348094 Z M119.212268,70.8621681 L119.212268,34.6653772 L119.212268,31.7201057 L109.125401,31.7201057 L109.125401,70.8621681 L119.212268,70.8621681 Z M108.215781,70.8621681 L108.215781,31.7201057 L98.6480258,31.7201057 L98.6480258,70.8621681 L108.215781,70.8621681 Z M112.44859,36.3804714 L116.008141,36.3804714 C116.570455,36.3804714 117.026301,36.8363173 117.026301,37.3986318 C117.026301,37.9609462 116.570455,38.4167921 116.008141,38.4167921 L112.44859,38.4167921 C111.886276,38.4167921 111.43043,37.9609462 111.43043,37.3986318 C111.43043,36.8363173 111.886276,36.3804714 112.44859,36.3804714 Z M101.971215,36.3804714 L105.530765,36.3804714 C106.093079,36.3804714 106.548925,36.8363173 106.548925,37.3986318 C106.548925,37.9609462 106.093079,38.4167921 105.530765,38.4167921 L101.971215,38.4167921 C101.4089,38.4167921 100.953054,37.9609462 100.953054,37.3986318 C100.953054,36.8363173 101.4089,36.3804714 101.971215,36.3804714 Z M101.971215,40.1816033 L105.530765,40.1816033 C106.093079,40.1816033 106.548925,40.6374493 106.548925,41.1997637 C106.548925,41.7620781 106.093079,42.217924 105.530765,42.217924 L101.971215,42.217924 C101.4089,42.217924 100.953054,41.7620781 100.953054,41.1997637 C100.953054,40.6374493 101.4089,40.1816033 101.971215,40.1816033 Z M144.575628,45.28046 L146.647174,44.7253909 C147.009276,44.6283658 147.381473,44.8432536 147.478498,45.2053563 C147.575523,45.567459 147.360635,45.9396556 146.998533,46.0366807 L144.926987,46.5917498 C144.564884,46.6887749 144.192688,46.4738871 144.095662,46.1117844 C143.998637,45.7496817 144.213525,45.3774851 144.575628,45.28046 Z M150.145635,64.8186782 L152.217181,64.2636092 C152.579284,64.1665841 152.95148,64.3814719 153.048505,64.7435746 C153.145531,65.1056772 152.930643,65.4778739 152.56854,65.574899 L150.496994,66.129968 C150.134892,66.2269932 149.762695,66.0121053 149.66567,65.6500026 C149.568645,65.2879 149.783532,64.9157033 150.145635,64.8186782 Z M134.348604,33.6173956 L134.348604,70.4516279 L141.349819,70.4516279 L141.349819,33.6173956 L134.348604,33.6173956 Z M136.688638,38.6817495 L138.611604,38.6817495 C138.98648,38.6817495 139.290377,38.9856468 139.290377,39.3605231 C139.290377,39.7353994 138.98648,40.0392966 138.611604,40.0392966 L136.688638,40.0392966 C136.313762,40.0392966 136.009864,39.7353994 136.009864,39.3605231 C136.009864,38.9856468 136.313762,38.6817495 136.688638,38.6817495 Z M136.688638,64.7269981 L138.611604,64.7269981 C138.98648,64.7269981 139.290377,65.0308954 139.290377,65.4057716 C139.290377,65.7806479 138.98648,66.0845452 138.611604,66.0845452 L136.688638,66.0845452 C136.313762,66.0845452 136.009864,65.7806479 136.009864,65.4057716 C136.009864,65.0308954 136.313762,64.7269981 136.688638,64.7269981 Z M120.142352,35.0692679 L120.142352,70.7264134 L126.14821,70.7264134 L126.14821,35.0692679 L120.142352,35.0692679 Z M122.183798,40.1816033 L124.106764,40.1816033 C124.48164,40.1816033 124.785537,40.4855006 124.785537,40.8603769 C124.785537,41.2352532 124.48164,41.5391505 124.106764,41.5391505 L122.183798,41.5391505 C121.808922,41.5391505 121.505024,41.2352532 121.505024,40.8603769 C121.505024,40.4855006 121.808922,40.1816033 122.183798,40.1816033 Z M122.183798,66.3822626 L124.106764,66.3822626 C124.48164,66.3822626 124.785537,66.6861599 124.785537,67.0610362 C124.785537,67.4359124 124.48164,67.7398097 124.106764,67.7398097 L122.183798,67.7398097 C121.808922,67.7398097 121.505024,67.4359124 121.505024,67.0610362 C121.505024,66.6861599 121.808922,66.3822626 122.183798,66.3822626 Z M127.029325,39.4052286 L127.029325,70.6288122 L133.445551,70.6288122 L133.445551,39.4052286 L127.029325,39.4052286 Z M130.095878,43.0226243 L130.477527,43.0226243 C131.339743,43.0226243 132.038707,43.721588 132.038707,44.5838035 C132.038707,45.4460189 131.339743,46.1449826 130.477527,46.1449826 L130.095878,46.1449826 C129.233663,46.1449826 128.534699,45.4460189 128.534699,44.5838035 C128.534699,43.721588 129.233663,43.0226243 130.095878,43.0226243 Z M130.095878,63.2800398 L130.477527,63.2800398 C131.339743,63.2800398 132.038707,63.9790036 132.038707,64.841219 C132.038707,65.7034345 131.339743,66.4023982 130.477527,66.4023982 L130.095878,66.4023982 C129.233663,66.4023982 128.534699,65.7034345 128.534699,64.841219 C128.534699,63.9790036 129.233663,63.2800398 130.095878,63.2800398 Z" id="books"></path>
            </g>
        </g>
    </g>
</svg>