<?xml version="1.0" encoding="UTF-8" standalone="no"?>
<svg width="29px" height="28px" viewBox="0 0 29 28" version="1.1" xmlns="http://www.w3.org/2000/svg" xmlns:xlink="http://www.w3.org/1999/xlink">
    <!-- Generator: Sketch 48.2 (47327) - http://www.bohemiancoding.com/sketch -->
    <title>contract</title>
    <desc>Created with Sketch.</desc>
    <defs></defs>
    <g id="V4.0" stroke="none" stroke-width="1" fill="none" fill-rule="evenodd" transform="translate(-455.000000, -11779.000000)">
        <g id="Group-53" transform="translate(263.000000, 11617.000000)" fill="#FFFFFF" fill-rule="nonzero">
            <g id="contracts" transform="translate(0.000000, 141.000000)">
                <g id="Group-6" transform="translate(28.000000, 15.000000)">
                    <path d="M184.189719,23.1057758 L184.189719,33.9369369 L164,33.9369369 L164,6 L181.255167,6 L184.189719,8.9345522 L184.189719,15.2079615 L188.673761,8.80408594 L192.38452,11.4023873 L184.189719,23.1057758 Z M179.139783,27.9337347 L190.573312,11.6049628 L189.180754,10.6298828 L177.747225,26.9586547 L177.410004,28.922186 L179.139783,27.9337347 Z M181.31876,19.3081161 L181.31876,11.0573475 L179.322774,8.87095919 L166.870959,8.87095919 L166.870959,31.0659777 L181.31876,31.0659777 L181.31876,27.2059305 L180.016913,29.0651603 L176.218053,30.5415882 L176.306154,26.4668589 L181.31876,19.3081161 Z" id="contract"></path>
                </g>
            </g>
        </g>
    </g>
</svg>