<?xml version="1.0" encoding="UTF-8" standalone="no"?>
<svg width="66px" height="66px" viewBox="0 0 66 66" version="1.1" xmlns="http://www.w3.org/2000/svg" xmlns:xlink="http://www.w3.org/1999/xlink">
    <!-- Generator: Sketch 48.2 (47327) - http://www.bohemiancoding.com/sketch -->
    <title>github</title>
    <desc>Created with Sketch.</desc>
    <defs></defs>
    <g id="V4.0" stroke="none" stroke-width="1" fill="none" fill-rule="evenodd" transform="translate(-647.000000, -12028.000000)">
        <g id="Group-53" transform="translate(263.000000, 11617.000000)" fill="#FFFFFF" fill-rule="nonzero">
            <g id="github" transform="translate(0.000000, 391.000000)">
                <g id="Github" transform="translate(384.000000, 20.000000)">
                    <path d="M33,0 C14.7758789,0 0,15.1494113 0,33.834236 C0,48.7853998 9.4545,61.464978 22.5686484,65.9379036 C24.2182617,66.2476983 24.8205117,65.2027359 24.8205117,64.3106223 C24.8205117,63.5052088 24.7902832,60.8371943 24.7741699,58.0121678 C15.5976562,60.0565618 13.6580039,54.0224373 13.6580039,54.0224373 C12.1554727,50.11531 9.99423047,49.0745107 9.99423047,49.0745107 C6.99516211,46.9763916 10.22175,47.0176931 10.22175,47.0176931 C13.5350273,47.253079 15.2793867,50.5035446 15.2793867,50.5035446 C18.2241211,55.6744996 23.0057051,54.1793832 24.8829023,53.3120505 C25.1828672,51.1313283 26.0368711,49.6362119 26.9776289,48.7936601 C19.6521445,47.9387509 11.946,45.0352184 11.946,32.0706264 C11.946,28.374104 13.2330645,25.3591563 15.3398438,22.9904955 C15.0034629,22.1314231 13.8674766,18.6889218 15.6661055,14.0322207 C15.6661055,14.0322207 18.4335938,13.1235864 24.7418789,17.5015515 C27.3723398,16.7478146 30.1942266,16.3761006 32.9999355,16.3636771 C35.8036465,16.3761006 38.6274668,16.7519118 41.2620527,17.5056487 C47.5583496,13.1235864 50.329834,14.0363178 50.329834,14.0363178 C52.1345215,18.6971821 50.9985352,22.1355202 50.6601562,22.9904955 C52.7749922,25.3591563 54.052002,28.3741701 54.052002,32.0706264 C54.052002,45.0682596 46.3337402,47.9304245 38.9820879,48.7688792 C40.1704746,49.8179387 41.221834,51.8747563 41.221834,55.0301953 C41.221834,59.5527489 41.1774902,63.1996434 41.1774902,64.3147854 C41.1774902,65.2151594 41.7776777,66.2683161 43.4494629,65.9379036 C56.5536211,61.4567177 66,48.7771395 66,33.834236 C66,15.1494113 51.2241211,0 33,0 Z" id="github"></path>
                </g>
            </g>
        </g>
    </g>
</svg>