<?xml version="1.0" encoding="UTF-8" standalone="no"?>
<svg width="30px" height="27px" viewBox="0 0 30 27" version="1.1" xmlns="http://www.w3.org/2000/svg" xmlns:xlink="http://www.w3.org/1999/xlink">
    <!-- Generator: Sketch 48.2 (47327) - http://www.bohemiancoding.com/sketch -->
    <title>letter</title>
    <desc>Created with Sketch.</desc>
    <defs></defs>
    <g id="V4.0" stroke="none" stroke-width="1" fill="none" fill-rule="evenodd" transform="translate(-942.000000, -12189.000000)">
        <g id="Group-53" transform="translate(263.000000, 11617.000000)" fill="#FFFFFF">
            <g id="emails" transform="translate(363.000000, 550.000000)">
                <path d="M319.428062,44.3742913 L326.923656,36.0674866 C328.244065,37.5725325 328.905769,38.3267172 328.908768,38.3300408 C330.080341,39.6284073 331.979836,39.6284073 333.151408,38.3300408 L335.160501,36.1035138 L342.606189,44.355012 C342.500228,44.4185018 342.378912,44.4545455 342.25,44.4545455 L319.75,44.4545455 C319.634771,44.4545455 319.525612,44.4257473 319.428062,44.3742913 Z M319.047338,43.9146323 C319.016734,43.8239936 319,43.7258508 319,43.6233766 L319,27.8311688 C319,27.6122936 319.07634,27.4131782 319.201122,27.2647399 L319.204491,27.268718 C322.471948,30.9932028 324.914285,33.7771283 326.531501,35.6204945 L319.047338,43.9146323 Z M342.965864,43.8720247 L335.558249,35.66272 L342.933718,27.4890399 C342.976297,27.5933816 343,27.7092076 343,27.8311688 L343,43.6233766 C343,43.7099925 342.988045,43.7935138 342.965864,43.8720247 Z M319.858889,27 L342.17741,27 C341.176876,28.1159857 338.161619,31.4792666 333.131639,37.0898429 C332.539899,37.7498869 331.778084,38.3360983 331,38.3300408 C330.242572,38.3241442 329.468796,37.7434448 328.871848,37.0860099 L319.858889,27 Z" id="letter" transform="translate(331.000000, 35.727273) rotate(-28.000000) translate(-331.000000, -35.727273) "></path>
            </g>
        </g>
    </g>
</svg>