<?xml version="1.0" encoding="UTF-8" standalone="no"?>
<svg width="44px" height="45px" viewBox="0 0 44 45" version="1.1" xmlns="http://www.w3.org/2000/svg" xmlns:xlink="http://www.w3.org/1999/xlink">
    <!-- Generator: Sketch 48.2 (47327) - http://www.bohemiancoding.com/sketch -->
    <title>love</title>
    <desc>Created with Sketch.</desc>
    <defs></defs>
    <g id="V4.0" stroke="none" stroke-width="1" fill="none" fill-rule="evenodd" transform="translate(-573.000000, -11644.000000)">
        <g id="Group-53" transform="translate(263.000000, 11617.000000)" fill="#FFFFFF" fill-rule="nonzero">
            <g id="letter">
                <path d="M310.002022,46.294823 C310.015337,45.7192227 310.268263,45.1751031 310.699499,44.7979352 L316.214116,39.9654752 L316.214116,37.4530795 C316.214116,36.5293865 316.955849,35.7805853 317.870822,35.7805853 L320.992312,35.7805853 L322.258508,34.6716568 L330.44545,27.4969452 C331.201867,26.8343395 332.324084,26.8343395 333.080584,27.497018 L341.26651,34.6715693 L342.532806,35.7805853 L345.206472,35.7805853 C346.121445,35.7805853 346.863178,36.5293865 346.863178,37.4530795 L346.863178,39.5731047 L346.976898,39.6727006 L352.825322,44.7976751 C353.268309,45.1851205 353.52309,45.7482435 353.523649,46.34075 L353.523648,65.2647661 C353.51821,68.4786331 350.94727,71.0832065 347.772744,71.0887192 L315.751661,71.0887186 C312.577848,71.0832065 310.006908,68.4786331 310.001469,65.2640518 L310.001469,46.3610144 C309.999396,46.3385352 309.999461,46.3164628 310.002022,46.294823 Z M311.825297,45.843422 L316.214116,48.80021 L316.214116,41.9244443 L312.054236,45.569748 C311.963386,45.649207 311.886477,45.7417492 311.825297,45.843422 Z M311.658175,49.0528482 L311.658174,64.6185143 C311.66265,67.2633345 313.777338,69.4056871 316.385931,69.4102182 L347.138502,69.4102188 C349.74778,69.4056871 351.862468,67.2633345 351.866943,64.6192003 L351.866943,49.0294782 L331.7297,62.295426 L311.658175,49.0528482 Z M351.688331,45.8248035 C351.629051,45.7303635 351.555984,45.6441797 351.470597,45.5694982 L346.863178,41.5320164 L346.863178,49.0712225 L351.688331,45.8248035 Z M317.456646,49.6373135 L331.7297,59.2532012 L345.706702,49.8493128 L345.706702,37.0349559 L317.456646,37.0349559 L317.456646,49.6373135 Z M323.228407,35.7805853 L340.296718,35.7805853 L332.506944,28.9532405 C332.079604,28.5788995 331.446314,28.5788995 331.019039,28.9531839 L323.228407,35.7805853 Z M331.400279,44.2389287 L331.475963,44.1631087 C332.677968,43.0010499 334.57564,43.0231515 335.751088,44.2207825 C336.937046,45.4291217 336.945621,47.3835746 335.770312,48.6026353 L331.400279,52.9236506 L327.030246,48.6026353 C325.854938,47.3835746 325.863512,45.4291217 327.04947,44.2207825 C328.224918,43.0231515 330.12259,43.0010499 331.324595,44.1631087 L331.400279,44.2389287 Z M334.574237,45.3979551 C334.030998,44.8444638 333.156304,44.8391393 332.619853,45.3726388 L331.400279,46.613341 L330.224315,45.4170042 L330.193857,45.3858698 C329.644255,44.8391393 328.76956,44.8444638 328.226321,45.3979551 C327.676134,45.9585249 327.672133,46.8704889 328.189489,47.4077895 L331.400279,50.5825646 L334.59425,47.4244198 C335.128344,46.8579887 335.120648,45.954678 334.574237,45.3979551 Z" id="love"></path>
            </g>
        </g>
    </g>
</svg>