<?xml version="1.0" encoding="UTF-8" standalone="no"?>
<svg width="25px" height="18px" viewBox="0 0 25 18" version="1.1" xmlns="http://www.w3.org/2000/svg" xmlns:xlink="http://www.w3.org/1999/xlink">
    <!-- Generator: Sketch 48.2 (47327) - http://www.bohemiancoding.com/sketch -->
    <title>quote</title>
    <desc>Created with Sketch.</desc>
    <defs></defs>
    <g id="quote" stroke="none" stroke-width="1" fill="none" fill-rule="evenodd">
        <path d="M1.90518833,5.66372314 C3.17532024,3.59867875 5.46929958,1.71078991 8.78719517,0 L9.40929748,1.16644184 C7.75034969,2.34152986 6.52343795,3.32651534 5.72852546,4.12142782 C4.32878826,5.55572644 3.62893016,6.92952197 3.62893016,8.24285565 C3.62893016,8.69215401 3.75853351,8.98592161 4.0177441,9.12416726 C4.2769547,9.27969361 4.50160051,9.35745562 4.69168828,9.35745562 C5.34835511,9.27105209 5.78036629,9.22785097 5.98773476,9.22785097 C7.09369996,9.22785097 8.00092343,9.62962137 8.70943238,10.4331742 C9.41794134,11.236727 9.7721905,12.2087522 9.7721905,13.3492788 C9.7721905,14.6280511 9.38338044,15.6951187 8.60574866,16.5505136 C7.82811688,17.4059086 6.75672917,17.8335996 5.39155338,17.8335996 C3.7844477,17.8335996 2.48409406,17.2590248 1.49045346,16.1098578 C0.496812851,14.9606908 0,13.4270512 0,11.5088928 C0,9.67713793 0.635056427,7.72876753 1.90518833,5.66372314 Z M16.3301857,5.52115803 C17.6780808,3.46475399 19.9331791,1.62438638 23.0955484,0 L23.7176507,1.16644184 C22.1623871,2.25512633 20.9700363,3.21419114 20.1405624,4.04366503 C18.6717024,5.51252506 17.9372834,6.87768037 17.9372834,8.13917193 C17.9372834,8.50206676 18.0323258,8.79583436 18.2224136,9.02048354 C18.4125014,9.24513272 18.6717081,9.35745562 19.0000415,9.35745562 C19.6567083,9.27105209 20.0887195,9.22785097 20.296088,9.22785097 C21.3847724,9.22785097 22.2876758,9.62530126 23.0048251,10.4202137 C23.7219744,11.2151262 24.0805437,12.1914715 24.0805437,13.3492788 C24.0805437,14.6971739 23.6830934,15.7815219 22.8881809,16.6023555 C22.0932684,17.423189 21.0132405,17.8335996 19.6480647,17.8335996 C18.0928012,17.8335996 16.8140481,17.2590248 15.8117671,16.1098578 C14.8094862,14.9606908 14.3083532,13.4270512 14.3083532,11.5088928 C14.3083532,9.57345369 14.9822906,7.57756207 16.3301857,5.52115803 Z" fill="#DB542E"></path>
    </g>
</svg>