<?xml version="1.0" encoding="utf-8"?>
<!-- Generator: Adobe Illustrator 15.0.0, SVG Export Plug-In . SVG Version: 6.00 Build 0)  -->
<!DOCTYPE svg PUBLIC "-//W3C//DTD SVG 1.1//EN" "http://www.w3.org/Graphics/SVG/1.1/DTD/svg11.dtd">
<svg version="1.1" id="Layer_1" xmlns="http://www.w3.org/2000/svg" xmlns:xlink="http://www.w3.org/1999/xlink" x="0px" y="0px"
	 width="220px" height="220px" viewBox="0 0 220 220" enable-background="new 0 0 220 220" xml:space="preserve">
<rect y="0.335" fill="#E43427" width="219.664" height="219.665"/>
<g>
	<path fill="#FFFFFF" d="M83.007,140.844l-7.352-15.929h-7.614v15.929H47.736V79.492h29.67c8.343,0,14.792,1.912,19.342,5.733
		c4.551,3.822,6.826,9.234,6.826,16.235c0,4.435-0.831,8.3-2.494,11.597s-4.07,5.907-7.22,7.832l12.078,19.955H83.007z
		 M68.041,109.511h9.365c2.216,0,3.923-0.656,5.12-1.969c1.195-1.313,1.794-3.136,1.794-5.47c0-2.275-0.599-4.04-1.794-5.295
		c-1.196-1.254-2.903-1.882-5.12-1.882h-9.365V109.511z"/>
	<path fill="#FFFFFF" d="M156.175,83.255c5.018,2.509,8.897,6.083,11.641,10.721c2.741,4.639,4.113,10.021,4.113,16.147
		c0,6.185-1.401,11.583-4.202,16.19c-2.8,4.611-6.782,8.185-11.946,10.723c-5.163,2.537-11.159,3.807-17.985,3.807h-26.605V79.492
		h27.395C145.292,79.492,151.157,80.748,156.175,83.255z M147.903,121.064c2.188-2.684,3.282-6.271,3.282-10.765
		c0-4.551-1.181-8.197-3.544-10.94c-2.363-2.742-5.528-4.114-9.496-4.114h-6.652v29.845h7.615
		C142.784,125.09,145.716,123.749,147.903,121.064z"/>
</g>
</svg>
