<?xml version="1.0" encoding="UTF-8" standalone="no"?>
<svg width="30px" height="30px" viewBox="0 0 30 30" version="1.1" xmlns="http://www.w3.org/2000/svg" xmlns:xlink="http://www.w3.org/1999/xlink">
    <!-- Generator: Sketch 48.2 (47327) - http://www.bohemiancoding.com/sketch -->
    <title>surface1</title>
    <desc>Created with Sketch.</desc>
    <defs></defs>
    <g id="V4.0" stroke="none" stroke-width="1" fill="none" fill-rule="evenodd" transform="translate(-943.000000, -11912.000000)">
        <g id="Group-53" transform="translate(263.000000, 11617.000000)" fill="#FFFFFF" fill-rule="nonzero">
            <g id="Slack" transform="translate(261.000000, 267.000000)">
                <g transform="translate(419.000000, 28.000000)" id="surface1">
                    <path d="M16.9123449,0.00386803246 C16.569319,-0.0147983816 16.2259724,0.0342245921 15.9018969,0.14813964 C15.2782859,0.356550233 14.7637449,0.805191538 14.4725449,1.39442782 C14.1813449,1.98366411 14.1375923,2.66471686 14.3510037,3.28633564 L15.3972504,6.35181876 L9.47891258,8.3358419 L8.50426339,5.37769686 C8.29573998,4.75442316 7.84685583,4.24016053 7.25730058,3.94911812 C6.66774534,3.6580757 5.98632393,3.61434674 5.36436866,3.82764271 C4.05598296,4.26392005 3.33885364,5.66277756 3.77652193,6.96468454 L4.75117113,9.88589605 L1.68402865,10.9327308 C0.379107337,11.3701623 -0.305687652,12.8024909 0.131980646,14.1067062 C0.340267742,14.7301915 0.789053914,15.2447252 1.37863591,15.5359976 C1.96821792,15.8272699 2.64976935,15.8711591 3.27187537,15.6579145 L6.33901785,14.6480133 L8.32411496,20.5262156 L5.36436866,21.5003375 C4.74075757,21.7087481 4.22621657,22.1573894 3.93501661,22.7466257 C3.64381666,23.335862 3.60006403,24.0169147 3.81347546,24.6385335 C4.24998896,25.9462114 5.64960367,26.6629527 6.95221539,26.2255212 L9.87500816,25.2513993 L10.9224096,28.3168824 C11.3600779,29.6210978 12.7931817,30.3055223 14.0981031,29.8680908 C14.7219259,29.6599163 15.2367381,29.211373 15.5281681,28.6221099 C15.8195982,28.0328469 15.8635111,27.3516642 15.6501511,26.7298948 L14.6397031,23.6644116 L20.5210874,21.6803885 L21.4957366,24.6385335 C21.70426,25.2618072 22.1531442,25.7760699 22.7426994,26.0671123 C23.3322547,26.3581547 24.0136761,26.4018837 24.6356313,26.1885877 C25.944017,25.7523103 26.6611464,24.3534528 26.2234781,23.0515459 L25.2488289,20.1291802 L28.3159714,19.0834996 C29.6208927,18.646068 30.3056877,17.2137395 29.8680194,15.9095242 C29.6594959,15.2862505 29.2106118,14.7719879 28.6210565,14.4809455 C28.0315013,14.189903 27.3500799,14.1461741 26.7281246,14.3594701 L23.6609821,15.3682171 L21.675885,9.49001476 L24.6356313,8.51589287 C25.2592424,8.30748227 25.7737834,7.85884097 26.0649834,7.26960468 C26.3561833,6.6803684 26.399936,5.99931565 26.1865245,5.37769686 C25.750011,4.07463571 24.3503963,3.35327767 23.0477846,3.79070918 L20.123837,4.76483108 L19.0775904,1.69934796 C18.7623221,0.750656762 17.9094144,0.0827935276 16.9123449,0.00386803246 Z M16.9492984,11.0770024 L18.9332407,16.956359 L13.0518564,18.939228 L11.0656045,13.0610256 L16.9492984,11.0770024 Z"></path>
                </g>
            </g>
        </g>
    </g>
</svg>